<mxfile host="65bd71144e" modified="2021-02-22T06:12:12.093Z" agent="5.0 (Windows NT 10.0; Win64; x64) AppleWebKit/537.36 (KHTML, like Gecko) Code/1.52.1 Chrome/83.0.4103.122 Electron/9.3.5 Safari/537.36" version="14.2.4" etag="D8VkqkQ0G-gWIPgHRahK" type="embed">
    <diagram id="fiuXu-f4d13XpH2pcboA" name="ページ1">
        <mxGraphModel dx="1248" dy="-634" grid="1" gridSize="10" guides="1" tooltips="1" connect="1" arrows="1" fold="1" page="1" pageScale="1" pageWidth="827" pageHeight="1169" math="0" shadow="0">
            <root>
                <mxCell id="0"/>
                <mxCell id="1" parent="0"/>
                <mxCell id="74" value="prod環境" style="rounded=0;whiteSpace=wrap;html=1;verticalAlign=bottom;" vertex="1" parent="1">
                    <mxGeometry x="901" y="1460" width="350" height="579" as="geometry"/>
                </mxCell>
                <mxCell id="75" value="dev環境" style="rounded=0;whiteSpace=wrap;html=1;verticalAlign=bottom;" vertex="1" parent="1">
                    <mxGeometry x="501" y="1460" width="210" height="584" as="geometry"/>
                </mxCell>
                <mxCell id="76" value="dev vpc" style="points=[[0,0],[0.25,0],[0.5,0],[0.75,0],[1,0],[1,0.25],[1,0.5],[1,0.75],[1,1],[0.75,1],[0.5,1],[0.25,1],[0,1],[0,0.75],[0,0.5],[0,0.25]];outlineConnect=0;gradientColor=none;html=1;whiteSpace=wrap;fontSize=12;fontStyle=0;shape=mxgraph.aws4.group;grIcon=mxgraph.aws4.group_vpc;strokeColor=#248814;fillColor=none;verticalAlign=top;align=left;spacingLeft=30;fontColor=#AAB7B8;dashed=0;" vertex="1" parent="1">
                    <mxGeometry x="518" y="1494" width="172" height="370" as="geometry"/>
                </mxCell>
                <mxCell id="77" value="prod vpc" style="points=[[0,0],[0.25,0],[0.5,0],[0.75,0],[1,0],[1,0.25],[1,0.5],[1,0.75],[1,1],[0.75,1],[0.5,1],[0.25,1],[0,1],[0,0.75],[0,0.5],[0,0.25]];outlineConnect=0;gradientColor=none;html=1;whiteSpace=wrap;fontSize=12;fontStyle=0;shape=mxgraph.aws4.group;grIcon=mxgraph.aws4.group_vpc;strokeColor=#248814;fillColor=none;verticalAlign=top;align=left;spacingLeft=30;fontColor=#AAB7B8;dashed=0;" vertex="1" parent="1">
                    <mxGeometry x="921" y="1494" width="310" height="370" as="geometry"/>
                </mxCell>
                <mxCell id="78" value="Public subnet" style="points=[[0,0],[0.25,0],[0.5,0],[0.75,0],[1,0],[1,0.25],[1,0.5],[1,0.75],[1,1],[0.75,1],[0.5,1],[0.25,1],[0,1],[0,0.75],[0,0.5],[0,0.25]];outlineConnect=0;gradientColor=none;html=1;whiteSpace=wrap;fontSize=12;fontStyle=0;shape=mxgraph.aws4.group;grIcon=mxgraph.aws4.group_security_group;grStroke=0;strokeColor=#248814;fillColor=#E9F3E6;verticalAlign=top;align=left;spacingLeft=30;fontColor=#248814;dashed=0;" vertex="1" parent="1">
                    <mxGeometry x="540" y="1524" width="130" height="100" as="geometry"/>
                </mxCell>
                <mxCell id="79" value="" style="outlineConnect=0;fontColor=#232F3E;gradientColor=none;fillColor=#5A30B5;strokeColor=none;dashed=0;verticalLabelPosition=bottom;verticalAlign=top;align=center;html=1;fontSize=12;fontStyle=0;aspect=fixed;pointerEvents=1;shape=mxgraph.aws4.internet_gateway;" vertex="1" parent="1">
                    <mxGeometry x="585" y="1484" width="38" height="38" as="geometry"/>
                </mxCell>
                <mxCell id="80" value="" style="outlineConnect=0;fontColor=#232F3E;gradientColor=none;fillColor=#5A30B5;strokeColor=none;dashed=0;verticalLabelPosition=bottom;verticalAlign=top;align=center;html=1;fontSize=12;fontStyle=0;aspect=fixed;pointerEvents=1;shape=mxgraph.aws4.nat_gateway;" vertex="1" parent="1">
                    <mxGeometry x="586.0000000000001" y="1564" width="38" height="38" as="geometry"/>
                </mxCell>
                <mxCell id="81" value="Private subnet" style="points=[[0,0],[0.25,0],[0.5,0],[0.75,0],[1,0],[1,0.25],[1,0.5],[1,0.75],[1,1],[0.75,1],[0.5,1],[0.25,1],[0,1],[0,0.75],[0,0.5],[0,0.25]];outlineConnect=0;gradientColor=none;html=1;whiteSpace=wrap;fontSize=12;fontStyle=0;shape=mxgraph.aws4.group;grIcon=mxgraph.aws4.group_security_group;grStroke=0;strokeColor=#147EBA;fillColor=#E6F2F8;verticalAlign=top;align=left;spacingLeft=30;fontColor=#147EBA;dashed=0;" vertex="1" parent="1">
                    <mxGeometry x="540" y="1643" width="130" height="201" as="geometry"/>
                </mxCell>
                <mxCell id="82" value="Security group" style="fillColor=none;strokeColor=#DD3522;verticalAlign=top;fontStyle=0;fontColor=#DD3522;dashed=1;" vertex="1" parent="1">
                    <mxGeometry x="550" y="1673" width="110" height="91" as="geometry"/>
                </mxCell>
                <mxCell id="83" style="edgeStyle=orthogonalEdgeStyle;rounded=0;orthogonalLoop=1;jettySize=auto;html=1;entryX=0.5;entryY=-0.055;entryDx=0;entryDy=0;entryPerimeter=0;endArrow=none;endFill=0;" edge="1" parent="1" source="84" target="85">
                    <mxGeometry relative="1" as="geometry"/>
                </mxCell>
                <mxCell id="84" value="" style="outlineConnect=0;fontColor=#232F3E;gradientColor=none;fillColor=#D86613;strokeColor=none;dashed=0;verticalLabelPosition=bottom;verticalAlign=top;align=center;html=1;fontSize=12;fontStyle=0;aspect=fixed;pointerEvents=1;shape=mxgraph.aws4.t2_instance;" vertex="1" parent="1">
                    <mxGeometry x="581.0000000000001" y="1704" width="48" height="48" as="geometry"/>
                </mxCell>
                <mxCell id="85" value="10GB" style="outlineConnect=0;fontColor=#232F3E;gradientColor=none;fillColor=#277116;strokeColor=none;dashed=0;verticalLabelPosition=bottom;verticalAlign=top;align=center;html=1;fontSize=12;fontStyle=0;aspect=fixed;pointerEvents=1;shape=mxgraph.aws4.volume;" vertex="1" parent="1">
                    <mxGeometry x="589.8949999999998" y="1776" width="30.21" height="38" as="geometry"/>
                </mxCell>
                <mxCell id="86" value="port: any&lt;br&gt;source: tetra(210.148.59.64/28)" style="shape=callout;whiteSpace=wrap;html=1;perimeter=calloutPerimeter;align=left;base=16;size=17;position=0.05;position2=0;" vertex="1" parent="1">
                    <mxGeometry x="668" y="1654" width="182" height="60" as="geometry"/>
                </mxCell>
                <mxCell id="87" value="Public subnet" style="points=[[0,0],[0.25,0],[0.5,0],[0.75,0],[1,0],[1,0.25],[1,0.5],[1,0.75],[1,1],[0.75,1],[0.5,1],[0.25,1],[0,1],[0,0.75],[0,0.5],[0,0.25]];outlineConnect=0;gradientColor=none;html=1;whiteSpace=wrap;fontSize=12;fontStyle=0;shape=mxgraph.aws4.group;grIcon=mxgraph.aws4.group_security_group;grStroke=0;strokeColor=#248814;fillColor=#E9F3E6;verticalAlign=top;align=left;spacingLeft=30;fontColor=#248814;dashed=0;" vertex="1" parent="1">
                    <mxGeometry x="941" y="1524" width="130" height="100" as="geometry"/>
                </mxCell>
                <mxCell id="88" value="" style="outlineConnect=0;fontColor=#232F3E;gradientColor=none;fillColor=#5A30B5;strokeColor=none;dashed=0;verticalLabelPosition=bottom;verticalAlign=top;align=center;html=1;fontSize=12;fontStyle=0;aspect=fixed;pointerEvents=1;shape=mxgraph.aws4.nat_gateway;" vertex="1" parent="1">
                    <mxGeometry x="987.0000000000001" y="1564" width="38" height="38" as="geometry"/>
                </mxCell>
                <mxCell id="89" value="Private subnet" style="points=[[0,0],[0.25,0],[0.5,0],[0.75,0],[1,0],[1,0.25],[1,0.5],[1,0.75],[1,1],[0.75,1],[0.5,1],[0.25,1],[0,1],[0,0.75],[0,0.5],[0,0.25]];outlineConnect=0;gradientColor=none;html=1;whiteSpace=wrap;fontSize=12;fontStyle=0;shape=mxgraph.aws4.group;grIcon=mxgraph.aws4.group_security_group;grStroke=0;strokeColor=#147EBA;fillColor=#E6F2F8;verticalAlign=top;align=left;spacingLeft=30;fontColor=#147EBA;dashed=0;" vertex="1" parent="1">
                    <mxGeometry x="941" y="1643" width="130" height="201" as="geometry"/>
                </mxCell>
                <mxCell id="90" value="Public subnet" style="points=[[0,0],[0.25,0],[0.5,0],[0.75,0],[1,0],[1,0.25],[1,0.5],[1,0.75],[1,1],[0.75,1],[0.5,1],[0.25,1],[0,1],[0,0.75],[0,0.5],[0,0.25]];outlineConnect=0;gradientColor=none;html=1;whiteSpace=wrap;fontSize=12;fontStyle=0;shape=mxgraph.aws4.group;grIcon=mxgraph.aws4.group_security_group;grStroke=0;strokeColor=#248814;fillColor=#E9F3E6;verticalAlign=top;align=left;spacingLeft=30;fontColor=#248814;dashed=0;" vertex="1" parent="1">
                    <mxGeometry x="1081" y="1524" width="130" height="100" as="geometry"/>
                </mxCell>
                <mxCell id="91" value="" style="outlineConnect=0;fontColor=#232F3E;gradientColor=none;fillColor=#5A30B5;strokeColor=none;dashed=0;verticalLabelPosition=bottom;verticalAlign=top;align=center;html=1;fontSize=12;fontStyle=0;aspect=fixed;pointerEvents=1;shape=mxgraph.aws4.nat_gateway;" vertex="1" parent="1">
                    <mxGeometry x="1127" y="1564" width="38" height="38" as="geometry"/>
                </mxCell>
                <mxCell id="92" value="Private subnet" style="points=[[0,0],[0.25,0],[0.5,0],[0.75,0],[1,0],[1,0.25],[1,0.5],[1,0.75],[1,1],[0.75,1],[0.5,1],[0.25,1],[0,1],[0,0.75],[0,0.5],[0,0.25]];outlineConnect=0;gradientColor=none;html=1;whiteSpace=wrap;fontSize=12;fontStyle=0;shape=mxgraph.aws4.group;grIcon=mxgraph.aws4.group_security_group;grStroke=0;strokeColor=#147EBA;fillColor=#E6F2F8;verticalAlign=top;align=left;spacingLeft=30;fontColor=#147EBA;dashed=0;" vertex="1" parent="1">
                    <mxGeometry x="1081" y="1643" width="130" height="201" as="geometry"/>
                </mxCell>
                <mxCell id="93" value="" style="outlineConnect=0;fontColor=#232F3E;gradientColor=none;fillColor=#5A30B5;strokeColor=none;dashed=0;verticalLabelPosition=bottom;verticalAlign=top;align=center;html=1;fontSize=12;fontStyle=0;aspect=fixed;pointerEvents=1;shape=mxgraph.aws4.internet_gateway;" vertex="1" parent="1">
                    <mxGeometry x="1057" y="1484" width="38" height="38" as="geometry"/>
                </mxCell>
                <mxCell id="94" value="Security group" style="fillColor=none;strokeColor=#DD3522;verticalAlign=top;fontStyle=0;fontColor=#DD3522;dashed=1;" vertex="1" parent="1">
                    <mxGeometry x="951" y="1673" width="250" height="91" as="geometry"/>
                </mxCell>
                <mxCell id="95" style="edgeStyle=orthogonalEdgeStyle;rounded=0;orthogonalLoop=1;jettySize=auto;html=1;entryX=0.5;entryY=-0.055;entryDx=0;entryDy=0;entryPerimeter=0;endArrow=none;endFill=0;" edge="1" parent="1" source="99" target="96">
                    <mxGeometry relative="1" as="geometry"/>
                </mxCell>
                <mxCell id="96" value="&lt;b&gt;&lt;font color=&quot;#ff0000&quot;&gt;20GB&lt;/font&gt;&lt;/b&gt;" style="outlineConnect=0;fontColor=#232F3E;gradientColor=none;fillColor=#277116;strokeColor=none;dashed=0;verticalLabelPosition=bottom;verticalAlign=top;align=center;html=1;fontSize=12;fontStyle=0;aspect=fixed;pointerEvents=1;shape=mxgraph.aws4.volume;" vertex="1" parent="1">
                    <mxGeometry x="990.8949999999998" y="1776" width="30.21" height="38" as="geometry"/>
                </mxCell>
                <mxCell id="97" style="edgeStyle=orthogonalEdgeStyle;rounded=0;orthogonalLoop=1;jettySize=auto;html=1;entryX=0.5;entryY=-0.055;entryDx=0;entryDy=0;entryPerimeter=0;endArrow=none;endFill=0;" edge="1" parent="1" source="100" target="98">
                    <mxGeometry relative="1" as="geometry"/>
                </mxCell>
                <mxCell id="98" value="&lt;b&gt;&lt;font color=&quot;#ff0000&quot;&gt;20GB&lt;/font&gt;&lt;/b&gt;" style="outlineConnect=0;fontColor=#232F3E;gradientColor=none;fillColor=#277116;strokeColor=none;dashed=0;verticalLabelPosition=bottom;verticalAlign=top;align=center;html=1;fontSize=12;fontStyle=0;aspect=fixed;pointerEvents=1;shape=mxgraph.aws4.volume;" vertex="1" parent="1">
                    <mxGeometry x="1130.895" y="1776" width="30.21" height="38" as="geometry"/>
                </mxCell>
                <mxCell id="99" value="" style="outlineConnect=0;fontColor=#232F3E;gradientColor=none;fillColor=#D86613;strokeColor=none;dashed=0;verticalLabelPosition=bottom;verticalAlign=top;align=center;html=1;fontSize=12;fontStyle=0;aspect=fixed;pointerEvents=1;shape=mxgraph.aws4.t3_instance;fontFamily=Helvetica;" vertex="1" parent="1">
                    <mxGeometry x="982.0000000000001" y="1704" width="48" height="48" as="geometry"/>
                </mxCell>
                <mxCell id="100" value="" style="outlineConnect=0;fontColor=#232F3E;gradientColor=none;fillColor=#D86613;strokeColor=none;dashed=0;verticalLabelPosition=bottom;verticalAlign=top;align=center;html=1;fontSize=12;fontStyle=0;aspect=fixed;pointerEvents=1;shape=mxgraph.aws4.t3_instance;fontFamily=Helvetica;" vertex="1" parent="1">
                    <mxGeometry x="1122" y="1704" width="48" height="48" as="geometry"/>
                </mxCell>
                <mxCell id="101" value="" style="rounded=0;whiteSpace=wrap;html=1;align=left;strokeColor=#FF0000;fillColor=none;" vertex="1" parent="1">
                    <mxGeometry x="1081" y="1524" width="130" height="100" as="geometry"/>
                </mxCell>
                <mxCell id="102" value="" style="rounded=0;whiteSpace=wrap;html=1;align=left;strokeColor=#FF0000;fillColor=none;" vertex="1" parent="1">
                    <mxGeometry x="1081" y="1643" width="130" height="201" as="geometry"/>
                </mxCell>
                <mxCell id="103" value="port: &lt;b&gt;&lt;font color=&quot;#ff0000&quot;&gt;22,80,443&lt;/font&gt;&lt;/b&gt;&lt;br&gt;source: tetra(210.148.59.64/28)" style="shape=callout;whiteSpace=wrap;html=1;perimeter=calloutPerimeter;align=left;base=16;size=17;position=0.05;position2=0;" vertex="1" parent="1">
                    <mxGeometry x="1209" y="1649" width="182" height="60" as="geometry"/>
                </mxCell>
                <mxCell id="104" value="" style="rounded=0;whiteSpace=wrap;html=1;align=left;strokeColor=#FF0000;fillColor=none;" vertex="1" parent="1">
                    <mxGeometry x="1131" y="1718" width="30" height="20" as="geometry"/>
                </mxCell>
                <mxCell id="105" value="" style="rounded=0;whiteSpace=wrap;html=1;align=left;strokeColor=#FF0000;fillColor=none;" vertex="1" parent="1">
                    <mxGeometry x="991" y="1718" width="30" height="20" as="geometry"/>
                </mxCell>
                <mxCell id="106" value="dev用&lt;br&gt;tfbackend" style="rounded=0;whiteSpace=wrap;html=1;verticalAlign=bottom;dashed=1;" vertex="1" parent="1">
                    <mxGeometry x="546" y="1924" width="120" height="90" as="geometry"/>
                </mxCell>
                <mxCell id="107" value="" style="outlineConnect=0;fontColor=#232F3E;gradientColor=#60A337;gradientDirection=north;fillColor=#277116;strokeColor=#ffffff;dashed=0;verticalLabelPosition=bottom;verticalAlign=top;align=center;html=1;fontSize=12;fontStyle=0;aspect=fixed;shape=mxgraph.aws4.resourceIcon;resIcon=mxgraph.aws4.s3;" vertex="1" parent="1">
                    <mxGeometry x="559" y="1933" width="40" height="40" as="geometry"/>
                </mxCell>
                <mxCell id="108" value="" style="outlineConnect=0;fontColor=#232F3E;gradientColor=#4D72F3;gradientDirection=north;fillColor=#3334B9;strokeColor=#ffffff;dashed=0;verticalLabelPosition=bottom;verticalAlign=top;align=center;html=1;fontSize=12;fontStyle=0;aspect=fixed;shape=mxgraph.aws4.resourceIcon;resIcon=mxgraph.aws4.dynamodb;" vertex="1" parent="1">
                    <mxGeometry x="614" y="1933" width="40" height="40" as="geometry"/>
                </mxCell>
                <mxCell id="109" value="" style="group" vertex="1" connectable="0" parent="1">
                    <mxGeometry x="1016" y="1924" width="120" height="90" as="geometry"/>
                </mxCell>
                <mxCell id="110" value="prod用&lt;br&gt;tfbackend" style="rounded=0;whiteSpace=wrap;html=1;verticalAlign=bottom;dashed=1;" vertex="1" parent="109">
                    <mxGeometry width="120" height="90" as="geometry"/>
                </mxCell>
                <mxCell id="111" value="" style="outlineConnect=0;fontColor=#232F3E;gradientColor=#60A337;gradientDirection=north;fillColor=#277116;strokeColor=#ffffff;dashed=0;verticalLabelPosition=bottom;verticalAlign=top;align=center;html=1;fontSize=12;fontStyle=0;aspect=fixed;shape=mxgraph.aws4.resourceIcon;resIcon=mxgraph.aws4.s3;" vertex="1" parent="109">
                    <mxGeometry x="13" y="9" width="40" height="40" as="geometry"/>
                </mxCell>
                <mxCell id="112" value="" style="outlineConnect=0;fontColor=#232F3E;gradientColor=#4D72F3;gradientDirection=north;fillColor=#3334B9;strokeColor=#ffffff;dashed=0;verticalLabelPosition=bottom;verticalAlign=top;align=center;html=1;fontSize=12;fontStyle=0;aspect=fixed;shape=mxgraph.aws4.resourceIcon;resIcon=mxgraph.aws4.dynamodb;" vertex="1" parent="109">
                    <mxGeometry x="68" y="9" width="40" height="40" as="geometry"/>
                </mxCell>
                <mxCell id="113" value="" style="rounded=0;whiteSpace=wrap;html=1;" vertex="1" parent="1">
                    <mxGeometry x="154" y="1677" width="213" height="87" as="geometry"/>
                </mxCell>
                <mxCell id="114" value="delivery環境" style="rounded=0;whiteSpace=wrap;html=1;verticalAlign=bottom;" vertex="1" parent="1">
                    <mxGeometry x="151.10000000000002" y="1460" width="300" height="140" as="geometry"/>
                </mxCell>
                <mxCell id="115" value="delivery用&lt;br&gt;tfbackend" style="rounded=0;whiteSpace=wrap;html=1;verticalAlign=bottom;dashed=1;" vertex="1" parent="1">
                    <mxGeometry x="316.1" y="1480" width="120" height="90" as="geometry"/>
                </mxCell>
                <mxCell id="116" value="" style="rounded=0;whiteSpace=wrap;html=1;verticalAlign=bottom;dashed=1;" vertex="1" parent="1">
                    <mxGeometry x="161.10000000000002" y="1480" width="140" height="90" as="geometry"/>
                </mxCell>
                <mxCell id="117" style="edgeStyle=orthogonalEdgeStyle;rounded=0;orthogonalLoop=1;jettySize=auto;html=1;endArrow=classic;endFill=1;exitX=0.5;exitY=1;exitDx=0;exitDy=0;entryX=0.5;entryY=0;entryDx=0;entryDy=0;" edge="1" parent="1" source="116" target="113">
                    <mxGeometry relative="1" as="geometry">
                        <mxPoint x="261" y="1670" as="targetPoint"/>
                    </mxGeometry>
                </mxCell>
                <mxCell id="118" value="github actions runner" style="shape=image;verticalLabelPosition=bottom;verticalAlign=top;imageAspect=0;image=https://image.flaticon.com/icons/png/512/37/37318.png;labelPosition=center;align=center;labelBackgroundColor=#ffffff;" vertex="1" parent="1">
                    <mxGeometry x="211.10000000000002" y="1500" width="40" height="40" as="geometry"/>
                </mxCell>
                <mxCell id="119" value="" style="outlineConnect=0;fontColor=#232F3E;gradientColor=#F78E04;gradientDirection=north;fillColor=#D05C17;strokeColor=#ffffff;dashed=0;verticalLabelPosition=bottom;verticalAlign=top;align=center;html=1;fontSize=12;fontStyle=0;aspect=fixed;shape=mxgraph.aws4.resourceIcon;resIcon=mxgraph.aws4.ec2;" vertex="1" parent="1">
                    <mxGeometry x="161.10000000000002" y="1480" width="38" height="38" as="geometry"/>
                </mxCell>
                <mxCell id="120" value="" style="outlineConnect=0;fontColor=#232F3E;gradientColor=#60A337;gradientDirection=north;fillColor=#277116;strokeColor=#ffffff;dashed=0;verticalLabelPosition=bottom;verticalAlign=top;align=center;html=1;fontSize=12;fontStyle=0;aspect=fixed;shape=mxgraph.aws4.resourceIcon;resIcon=mxgraph.aws4.s3;" vertex="1" parent="1">
                    <mxGeometry x="329.1" y="1489" width="40" height="40" as="geometry"/>
                </mxCell>
                <mxCell id="121" value="" style="outlineConnect=0;fontColor=#232F3E;gradientColor=#4D72F3;gradientDirection=north;fillColor=#3334B9;strokeColor=#ffffff;dashed=0;verticalLabelPosition=bottom;verticalAlign=top;align=center;html=1;fontSize=12;fontStyle=0;aspect=fixed;shape=mxgraph.aws4.resourceIcon;resIcon=mxgraph.aws4.dynamodb;" vertex="1" parent="1">
                    <mxGeometry x="384.1" y="1489" width="40" height="40" as="geometry"/>
                </mxCell>
                <mxCell id="122" value="github" style="shape=image;verticalLabelPosition=middle;verticalAlign=middle;imageAspect=0;image=https://image.flaticon.com/icons/png/512/37/37318.png;labelPosition=right;align=left;" vertex="1" parent="1">
                    <mxGeometry x="140" y="1650" width="40" height="40" as="geometry"/>
                </mxCell>
                <mxCell id="123" value="&lt;span style=&quot;background-color: rgb(255 , 255 , 255)&quot;&gt;dev&lt;/span&gt;" style="shape=cylinder;whiteSpace=wrap;html=1;boundedLbl=1;backgroundOutline=1;labelPosition=center;verticalLabelPosition=bottom;align=center;verticalAlign=top;" vertex="1" parent="1">
                    <mxGeometry x="190.00000000000023" y="1684.5" width="40" height="50" as="geometry"/>
                </mxCell>
                <mxCell id="124" value="prod" style="shape=cylinder;whiteSpace=wrap;html=1;boundedLbl=1;backgroundOutline=1;labelPosition=center;verticalLabelPosition=bottom;align=center;verticalAlign=top;" vertex="1" parent="1">
                    <mxGeometry x="290.0000000000002" y="1684.5" width="40" height="50" as="geometry"/>
                </mxCell>
            </root>
        </mxGraphModel>
    </diagram>
</mxfile>